<svg xmlns="http://www.w3.org/2000/svg" width="34.183" height="48.535" viewBox="0 0 34.183 48.535">
  <path id="arrow_gototop" d="M113.873,196.847a2.467,2.467,0,1,1,3.489-3.489l14.611,14.611a2.087,2.087,0,0,1,.143.153h0l.069.1.015.02.03.03v.01l.025.035.025.03.01.01.025.039.01.02.015.02.025.049a2.426,2.426,0,0,1,.34,1.248,2.458,2.458,0,0,1-.34,1.253l-.025.04-.015.03-.01.02-.025.03-.01.02-.025.03-.025.034h0l-.03.04-.015.02-.069.089h0c-.044.054-.094.1-.143.153L117.362,226.1a2.467,2.467,0,1,1-3.489-3.489L124.29,212.2H86.64a2.467,2.467,0,1,1,0-4.934h37.65l-10.417-10.417Z" transform="translate(-192.637 132.708) rotate(-90)" fill="#fff"/>
</svg>
