<svg xmlns="http://www.w3.org/2000/svg" width="118.59" height="118.59" viewBox="0 0 118.59 118.59">
  <defs>
    <style>
      .cls-1 {
        fill: #fff;
      }
    </style>
  </defs>
  <path id="arrow-talk" class="cls-1" d="M144.39,201.173a5,5,0,0,1,7.073-7.073l29.623,29.623c.1.1.2.2.29.31h.01l.14.2.03.04.06.06v.02l.05.07.05.06.02.02.05.08.02.04.03.04.05.1a4.92,4.92,0,0,1,.69,2.531,4.984,4.984,0,0,1-.69,2.541l-.05.08-.03.06-.02.04-.05.06-.02.04-.05.06-.05.07h0l-.06.08-.03.04-.14.18h-.01c-.09.11-.19.21-.29.31L151.464,260.48a5,5,0,0,1-7.073-7.073l21.12-21.11H89.175a5,5,0,1,1,0-10H165.51l-21.12-21.12Z" transform="translate(125.703 -195.734) rotate(45)"/>
</svg>
